<?xml version="1.0" encoding="UTF-8"?> <svg xmlns="http://www.w3.org/2000/svg" width="67" height="54" viewBox="0 0 67 54" fill="none"><path d="M52.479 54C51.9129 54 51.3477 54 50.7816 54C50.4216 53.9415 50.0616 53.883 49.7016 53.8254C41.7096 52.5375 36.2133 45.4752 36.9351 37.4166C36.9792 36.9288 37.0521 36.4437 37.116 35.9298C29.9448 35.9298 22.8447 35.9298 15.6609 35.9298C15.6609 38.7333 15.6609 41.499 15.6609 44.2791C11.7153 44.2791 7.8543 44.2791 3.9132 44.2791C3.9132 41.4792 3.9132 38.7126 3.9132 35.8668C2.556 35.8668 1.278 35.8668 0 35.8668C0 31.257 0 26.6472 0 22.0383C0.0324 21.9834 0.0837 21.933 0.0936 21.8745C0.9153 17.1027 3.6666 14.0463 8.2836 12.6234C8.4852 12.5613 8.7066 12.2742 8.7561 12.0555C9.3357 9.4716 9.8847 6.8805 10.4418 4.2921C10.7469 2.8746 11.0511 1.458 11.3562 0.0414031C11.5722 0.0306031 11.7234 0.0162031 11.8746 0.0162031C21.5316 0.0135031 31.1904 0.0180031 40.8492 3.12424e-06C41.364 -0.000896876 41.5017 0.192603 41.5953 0.641703C42.3828 4.4019 43.1982 8.1567 43.9875 11.9169C44.0766 12.3417 44.2242 12.5541 44.685 12.6936C48.7818 13.9311 51.4062 16.6356 52.4808 20.7756C52.7445 21.7917 52.7868 22.8645 52.9371 23.958C53.0226 23.9697 53.1486 23.9868 53.2737 24.0021C56.3562 24.39 59.2119 25.3764 61.5933 27.4221C65.6694 30.924 67.2246 35.4366 66.7233 40.7142C66.1446 46.8072 61.911 51.7995 55.9881 53.343C54.8397 53.6436 53.6499 53.7858 52.479 54ZM15.12 26.5464C11.3652 26.5464 7.6743 26.5464 3.9564 26.5464C3.9564 28.3725 3.9564 30.141 3.9564 31.9392C4.1175 31.95 4.2435 31.9662 4.3695 31.9662C15.6141 31.9671 26.8587 31.9653 38.1033 31.9779C38.4957 31.9779 38.6766 31.8204 38.8503 31.509C39.8187 29.7801 41.1102 28.3257 42.6627 27.0981C42.8526 26.9478 43.0416 26.7957 43.2306 26.6445C43.2135 26.5959 43.1964 26.5473 43.1793 26.4987C41.3478 26.4987 39.5163 26.4987 37.6875 26.4987C37.6875 25.164 37.6875 23.9184 37.6875 22.5954C41.4261 22.5954 45.1107 22.5954 48.8052 22.5954C48.8052 22.4298 48.8178 22.3416 48.8034 22.2579C48.1932 18.6948 45.4752 16.1748 41.6637 16.1235C31.7691 15.9903 21.8718 16.0641 11.9763 16.1001C10.9314 16.1037 9.8469 16.2711 8.8524 16.5888C6.2901 17.4069 4.7241 19.2168 4.0833 21.8232C4.0248 22.0617 4.0248 22.3146 3.9915 22.6152C5.9067 22.6152 7.731 22.6152 9.5553 22.6152C11.3994 22.6152 13.2435 22.6152 15.1209 22.6152C15.12 23.9382 15.12 25.1883 15.12 26.5464ZM62.9802 39.4695C63.0774 33.4683 59.2128 28.4481 52.7886 27.9405C46.9143 27.4761 41.1174 31.2804 40.8096 38.7792C40.5756 44.4843 45.108 49.7151 51.3486 50.0292C57.6306 50.3469 62.7192 45.4455 62.9802 39.4695ZM12.7791 12.1032C21.9042 12.1032 30.9357 12.1032 39.9906 12.1032C39.9591 11.8782 39.9456 11.7045 39.9096 11.5353C39.4119 9.2223 38.8881 6.9147 38.43 4.5945C38.3211 4.0419 38.115 3.9141 37.5822 3.915C30.1212 3.933 22.6611 3.9267 15.2001 3.9267C14.9868 3.9267 14.7735 3.9267 14.5296 3.9267C13.941 6.6744 13.365 9.3654 12.7791 12.1032ZM11.7189 40.3533C11.7189 38.8476 11.7189 37.4031 11.7189 35.9379C10.4148 35.9379 9.1485 35.9379 7.875 35.9379C7.875 37.4301 7.875 38.8737 7.875 40.3533C9.1629 40.3533 10.413 40.3533 11.7189 40.3533Z" fill="#2A2C43"></path><path d="M19.8918 22.6557C24.2379 22.6557 28.5525 22.6557 32.8924 22.6557C32.8924 23.9481 32.8924 25.2 32.8924 26.4906C28.5471 26.4906 24.2361 26.4906 19.8918 26.4906C19.8918 25.1955 19.8918 23.9463 19.8918 22.6557Z" fill="#2A2C43"></path><path d="M50.1075 44.8497C48.6945 43.4403 47.2032 41.9535 45.774 40.5288C46.6596 39.6504 47.5605 38.7558 48.5622 37.7613C48.9807 38.2635 49.5153 38.907 50.0914 39.5991C51.9607 37.728 53.6769 36.0117 55.3744 34.3125C56.2951 35.2323 57.1842 36.1206 58.0149 36.9504C55.3941 39.5685 52.7571 42.2028 50.1075 44.8497Z" fill="#D1001B"></path></svg> 