<?xml version="1.0" encoding="UTF-8"?> <svg xmlns="http://www.w3.org/2000/svg" width="54" height="54" viewBox="0 0 54 54" fill="none"><path d="M0 39.5568C0.3285 38.6397 0.486 37.6056 1.017 36.8262C2.9403 34.0047 4.3884 30.9177 6.1236 27.9936C7.7337 25.2819 10.1808 23.8698 13.2831 23.7744C16.794 23.6664 20.313 23.6646 23.823 23.7744C26.9901 23.8734 29.4696 25.3314 31.0599 28.1295C32.3253 30.357 33.5439 32.6115 34.7913 34.8489C34.9434 35.1216 35.1297 35.3808 35.3295 35.622C36.486 37.0089 37.1052 38.5947 37.1079 40.4064C37.1133 44.0604 37.0818 47.7153 37.125 51.3693C37.1403 52.677 36.6849 53.5707 35.4231 53.9991C33.2793 53.9991 31.1355 53.9991 28.9926 53.9991C27.4419 53.496 27.1845 52.2675 27.3159 50.8689C21.4362 50.8689 15.6366 50.8689 9.8415 50.8689C9.5706 53.2611 9.5049 53.3799 8.118 54C5.9742 54 3.8304 54 1.6875 54C0.8352 53.7273 0.2709 53.1666 0 52.3134C0 48.0609 0 43.8093 0 39.5568ZM32.8914 46.62C32.8914 44.5401 32.8887 42.5241 32.8923 40.5081C32.8941 39.4749 32.4846 38.6352 31.7124 37.9692C30.8178 37.1979 29.7576 36.9171 28.593 36.9189C22.1139 36.9252 15.6348 36.9216 9.1548 36.9216C8.8038 36.9216 8.4519 36.9153 8.1018 36.9279C6.1668 36.999 4.0662 38.3949 4.1994 40.932C4.2885 42.6303 4.2165 44.3376 4.2165 46.0404C4.2165 46.2249 4.2165 46.4103 4.2165 46.6191C6.8031 46.6191 9.3123 46.6236 11.8215 46.6065C11.9709 46.6056 12.1644 46.4607 12.2607 46.3266C12.7836 45.6003 13.2831 44.8578 13.788 44.1189C14.2389 43.4592 14.8635 43.1379 15.6618 43.1388C17.6112 43.1415 19.5597 43.1433 21.5091 43.1379C22.3074 43.1361 22.9311 43.4502 23.3955 44.0982C23.9274 44.8398 24.4584 45.5823 25.0083 46.3104C25.1109 46.4463 25.2981 46.6038 25.4466 46.6047C27.9036 46.6254 30.3606 46.62 32.8914 46.62ZM28.7649 32.6916C28.3194 31.8834 27.9009 31.1571 27.5121 30.4155C26.6301 28.7316 25.2 27.9747 23.3496 27.9657C20.1537 27.9495 16.9569 27.9549 13.761 27.9684C13.3101 27.9702 12.8502 28.0359 12.4092 28.1376C9.9981 28.6938 9.432 30.8763 8.3412 32.6916C15.1776 32.6916 21.9195 32.6916 28.7649 32.6916Z" fill="#2A2C43"></path><path d="M44.1792 36.9216C43.3413 36.9216 42.5871 36.9279 41.8329 36.9198C40.5621 36.9072 39.6261 35.9919 39.6405 34.7841C39.6549 33.6006 40.5846 32.7105 41.8365 32.7069C44.2611 32.6997 46.6848 32.7051 49.1094 32.7051C49.3011 32.7051 49.4928 32.7051 49.7592 32.7051C49.7592 32.4936 49.7592 32.3082 49.7592 32.1237C49.7592 30.1383 49.6791 28.1493 49.779 26.1693C49.9113 23.5404 47.7198 22.1931 45.8253 22.1724C43.5942 22.1481 41.3631 22.1643 39.132 22.1634C36.3213 22.1625 33.5106 22.1697 30.6999 22.1589C29.8134 22.1553 29.1483 21.7413 28.7712 20.9322C28.4031 20.1411 28.5183 19.3851 29.061 18.7119C29.5101 18.1557 30.1194 17.9424 30.8295 17.9433C35.5374 17.9496 40.2453 17.9469 44.9532 17.946C45.1458 17.946 45.3375 17.946 45.5913 17.946C45.5229 17.7831 45.4815 17.6571 45.4194 17.5437C45.0738 16.9128 44.7102 16.2918 44.3772 15.6537C43.5078 13.9887 42.0948 13.221 40.2651 13.2084C37.0332 13.1859 33.8004 13.1841 30.5685 13.2093C28.7397 13.2228 27.3258 13.9896 26.4609 15.6609C26.082 16.3935 25.6842 17.1162 25.272 17.8299C25.0713 18.1773 24.8463 18.5202 24.5808 18.8199C23.895 19.5966 22.86 19.7487 22.0059 19.2339C21.1563 18.7218 20.7306 17.6211 21.1824 16.7121C21.915 15.2379 22.6314 13.7295 23.5773 12.393C25.1442 10.179 27.4392 9.08013 30.1239 9.01443C33.6528 8.92803 37.188 8.90283 40.7151 9.01983C43.902 9.12513 46.3797 10.611 47.9646 13.4397C49.2084 15.6591 50.4288 17.892 51.6681 20.1141C51.8202 20.3868 52.0074 20.6451 52.2081 20.8863C53.3529 22.2597 53.9658 23.8347 53.9721 25.623C53.9847 29.6811 53.9784 33.7392 53.9748 37.7973C53.9739 39.2238 53.1045 40.0833 51.6699 40.086C49.9482 40.0896 48.2265 40.0896 46.5048 40.086C45.0423 40.0833 44.1864 39.2238 44.1792 37.7604C44.1783 37.4985 44.1792 37.2384 44.1792 36.9216Z" fill="#D1001B"></path><path d="M12.546 8.98472C12.8061 8.98472 12.9735 8.98472 13.1418 8.98472C14.6529 8.98472 16.164 8.97572 17.6751 8.98832C18.9063 8.99822 19.8315 9.93062 19.818 11.1186C19.8054 12.2832 18.8874 13.1886 17.676 13.1985C15.9543 13.2111 14.2326 13.1967 12.51 13.2048C11.4768 13.2102 10.5354 13.5081 9.7281 14.1669C8.8767 14.8617 8.4231 15.7527 8.4321 16.8678C8.4411 17.9217 8.4384 18.9765 8.433 20.0304C8.4258 21.3219 7.5438 22.2597 6.3396 22.2669C5.1138 22.2741 4.2111 21.3291 4.2219 20.0061C4.2336 18.5499 4.2147 17.0883 4.3263 15.6384C4.428 14.3127 5.0508 13.1607 5.8635 12.1149C6.0984 11.8116 6.3243 11.4957 6.5106 11.1618C7.7445 8.95682 8.9622 6.74192 10.1943 4.53512C11.8395 1.58852 14.409 0.120622 17.7291 0.0441218C21.0654 -0.0323782 24.4053 0.0126218 27.7434 0.0324218C29.7045 0.0441218 31.5279 0.546322 33.1146 1.74872C34.1433 2.52812 34.3503 3.79172 33.6267 4.76552C32.9175 5.71952 31.6638 5.89502 30.6324 5.14802C29.7873 4.53602 28.8441 4.25342 27.8217 4.24982C24.4656 4.23632 21.1095 4.21202 17.7543 4.25792C16.0587 4.28132 14.7195 5.03192 13.8852 6.56912C13.4604 7.34942 13.0221 8.12432 12.546 8.98472Z" fill="#2A2C43"></path><path d="M15.39 18.1728C15.3819 19.3302 14.4252 20.2716 13.266 20.2626C12.1068 20.2545 11.1681 19.2996 11.1771 18.1377C11.1852 16.9776 12.1383 16.0398 13.3002 16.0479C14.4594 16.0578 15.3981 17.0118 15.39 18.1728Z" fill="#2A2C43"></path><path d="M44.8227 29.5398C43.6617 29.5488 42.7068 28.6092 42.6987 27.4509C42.6906 26.2881 43.6275 25.335 44.7867 25.326C45.9486 25.317 46.9026 26.2548 46.9116 27.4149C46.9206 28.575 45.9801 29.5308 44.8227 29.5398Z" fill="#D1001B"></path><path d="M11.1726 41.8698C11.1753 43.0299 10.2303 43.9803 9.07111 43.983C7.91191 43.9857 6.96151 43.0407 6.95881 41.8815C6.95611 40.7196 7.89841 39.7719 9.05941 39.7692C10.2213 39.7665 11.1699 40.7097 11.1726 41.8698Z" fill="#2A2C43"></path><path d="M30.0438 41.896C30.0339 43.0543 29.0772 43.993 27.9171 43.9831C26.7588 43.9732 25.821 43.0165 25.8309 41.8555C25.8408 40.6963 26.7957 39.7594 27.9576 39.7684C29.1159 39.7792 30.0537 40.7341 30.0438 41.896Z" fill="#2A2C43"></path></svg> 