<?xml version="1.0" encoding="UTF-8"?> <svg xmlns="http://www.w3.org/2000/svg" width="63" height="54" viewBox="0 0 63 54" fill="none"><path d="M0 8.89561C0.1584 8.23771 0.2799 7.56811 0.4806 6.92281C1.773 2.76841 5.5863 -0.00628929 9.9432 1.07059e-05C21.7908 0.0180107 33.6393 0.0234107 45.4869 0.0558107C46.845 0.0594107 48.2427 0.0288107 49.554 0.321311C53.8794 1.28611 57.0006 5.25871 57.0168 9.68311C57.0321 13.9419 56.9997 18.2007 56.9781 22.4604C56.9727 23.5863 56.3841 24.4404 55.4571 24.7329C54.5562 25.0182 53.532 24.7419 53.0478 23.9283C52.7751 23.4693 52.6302 22.8663 52.6248 22.3263C52.5888 18.6822 52.6185 15.0381 52.5969 11.394C52.5924 10.5552 52.5438 9.70471 52.3953 8.88121C51.912 6.21361 50.3379 4.79611 47.6244 4.52881C46.9458 4.46221 46.2609 4.42441 45.5787 4.42351C34.2081 4.41721 22.8384 4.41631 11.4687 4.42531C10.6965 4.42621 9.9135 4.44961 9.153 4.57201C6.2289 5.04181 4.7241 6.75001 4.5225 9.76951C4.4874 10.2915 4.4802 10.8162 4.4802 11.34C4.4775 18.8793 4.473 26.4186 4.4847 33.9579C4.4856 34.7517 4.527 35.5536 4.6458 36.3375C5.0346 38.9034 6.57 40.3965 9.144 40.7313C9.8865 40.8276 10.6416 40.8717 11.3913 40.8726C18.0216 40.8834 24.6519 40.8753 31.2822 40.8816C32.9823 40.8834 34.0794 42.4053 33.4728 43.8903C33.1173 44.7606 32.3217 45.2511 31.2309 45.252C27.1521 45.2547 23.0742 45.2457 18.9954 45.2556C15.9885 45.2628 12.9816 45.2817 9.9738 45.3123C5.04 45.3618 0.7965 41.7078 0.126 36.8199C0.1053 36.6669 0.0432 36.5184 0 36.3681C0 35.7759 0 35.1837 0 34.5915C0.0342 34.3242 0.0981 34.0569 0.0981 33.7905C0.1035 26.3718 0.1035 18.9522 0.0981 11.5335C0.0981 11.2464 0.0342 10.9602 0 10.6731C0 10.08 0 9.48781 0 8.89561Z" fill="#2A2C43"></path><path d="M49.2219 54C47.8332 53.5914 46.3689 53.3448 45.0675 52.7454C40.0635 50.4396 37.2681 44.9946 38.1726 39.5676C39.0825 34.1055 43.5942 29.8593 49.1013 29.2824C55.8711 28.5732 61.9209 33.4305 62.7318 40.2282C63.5229 46.8522 58.7277 52.9839 52.0614 53.8776C51.9318 53.8947 51.8085 53.9586 51.6825 54C50.8626 54 50.0427 54 49.2219 54ZM54.1539 34.6068C51.3405 32.7564 47.0394 33.462 44.4969 36.1998C42.0156 38.8728 41.8014 42.9858 43.434 45.333C46.9953 41.7708 50.562 38.2023 54.1539 34.6068ZM57.4209 37.8936C53.8506 41.4612 50.2686 45.0414 46.6956 48.6126C49.3191 50.4135 53.6058 49.7988 56.1294 47.2113C58.6296 44.649 59.1903 40.3569 57.4209 37.8936Z" fill="#D1001B"></path><path d="M17.6094 22.671C17.5797 16.6248 22.4505 11.754 28.548 11.7333C34.5123 11.7126 39.4326 16.5906 39.4749 22.5684C39.5181 28.5984 34.6131 33.561 28.5804 33.5889C22.5342 33.6177 17.64 28.7469 17.6094 22.671ZM28.5282 16.1073C24.8814 16.1154 21.978 19.0197 21.9834 22.6557C21.9879 26.2809 24.9525 29.2527 28.5318 29.2221C32.184 29.1915 35.1378 26.2053 35.0991 22.5819C35.0613 18.999 32.1192 16.0992 28.5282 16.1073Z" fill="#2A2C43"></path><path d="M13.9419 22.6287C13.9545 24.2325 12.6585 25.5501 11.0547 25.5654C9.45717 25.5807 8.14227 24.2928 8.10897 22.6782C8.07657 21.1095 9.42207 19.7388 11.0016 19.7325C12.5973 19.7253 13.9293 21.0375 13.9419 22.6287Z" fill="#2A2C43"></path></svg> 