<?xml version="1.0" encoding="UTF-8"?> <svg xmlns="http://www.w3.org/2000/svg" width="77" height="60" viewBox="0 0 77 60" fill="none"><path d="M35.238 60C34.388 59.672 33.464 59.462 32.7 58.996C30.75 57.806 29.814 55.976 29.746 53.706C29.722 52.862 29.742 52.018 29.742 51.052C28.9 51.052 28.092 51.052 27.282 51.052C26.834 51.052 26.386 51.058 25.938 51.05C24.63 51.024 23.88 50.252 24.014 48.958C24.242 46.76 24.522 44.566 24.788 42.372C25.172 39.216 25.552 36.06 25.954 32.906C26.102 31.742 26.736 31.212 27.906 31.188C29.27 31.16 29.27 31.16 29.744 29.89C31.626 24.844 33.51 19.8 35.392 14.754C35.878 13.45 36.32 13.142 37.724 13.142C46.056 13.142 54.388 13.142 62.72 13.142C64.076 13.142 64.522 13.448 64.998 14.72C66.954 19.95 68.914 25.178 70.846 30.416C71.056 30.986 71.3 31.22 71.942 31.204C73.87 31.158 74.298 31.57 74.53 33.458C75.154 38.562 75.782 43.664 76.41 48.768C76.584 50.186 75.826 51.038 74.37 51.048C73.158 51.056 71.946 51.05 70.65 51.05C70.65 51.792 70.65 52.456 70.65 53.12C70.648 56.848 68.972 58.998 65.362 59.91C65.318 59.92 65.284 59.968 65.246 59.998C64.35 59.998 63.454 59.998 62.558 59.998C62.494 59.964 62.432 59.912 62.364 59.896C58.9 59.084 57.086 56.81 57.078 53.256C57.076 52.544 57.078 51.832 57.078 51.092C52.454 51.092 47.924 51.092 43.308 51.092C43.308 52.042 43.328 52.956 43.304 53.866C43.25 55.908 42.418 57.6 40.736 58.742C39.9 59.31 38.868 59.59 37.924 60C37.03 60 36.134 60 35.238 60ZM72.628 47.43C72.11 43.17 71.602 38.988 71.096 34.832C57.108 34.832 43.216 34.832 29.316 34.832C28.804 39.058 28.298 43.222 27.788 47.43C42.724 47.43 57.618 47.43 72.628 47.43ZM33.118 31.12C44.554 31.12 55.876 31.12 67.296 31.12C65.492 26.282 63.716 21.52 61.942 16.762C61.814 16.746 61.716 16.726 61.618 16.726C54.082 16.724 46.548 16.73 39.014 16.71C38.512 16.708 38.388 16.958 38.252 17.326C37.394 19.654 36.526 21.978 35.66 24.304C34.824 26.554 33.982 28.804 33.118 31.12ZM33.356 51.082C33.356 52.122 33.28 53.094 33.374 54.05C33.506 55.38 34.546 56.298 35.866 56.406C37.942 56.576 39.172 55.948 39.62 54.49C39.634 54.442 39.666 54.396 39.666 54.348C39.668 53.268 39.668 52.188 39.668 51.084C37.56 51.082 35.5 51.082 33.356 51.082ZM60.69 51.084C60.69 52.108 60.626 53.054 60.706 53.986C60.82 55.32 61.83 56.264 63.14 56.4C65.182 56.61 66.462 55.988 66.94 54.552C66.948 54.528 66.966 54.506 66.966 54.482C66.968 53.356 66.968 52.23 66.968 51.084C64.89 51.084 62.832 51.084 60.69 51.084Z" fill="#2A2C43"></path><path d="M0 1.35203C0.454 0.346034 1.234 -0.00396616 2.328 3.38441e-05C10.262 0.0260338 18.198 0.0140338 26.132 0.0140338C27.778 0.0140338 28.404 0.626034 28.406 2.24603C28.408 10.226 28.408 18.206 28.406 26.186C28.406 27.834 27.816 28.408 26.142 28.41C23.058 28.412 19.974 28.41 16.888 28.41C16.62 28.41 16.352 28.41 16.04 28.41C16.04 37.756 16.04 47.018 16.04 56.41C16.878 56.41 17.736 56.406 18.594 56.412C18.942 56.414 19.302 56.38 19.634 56.46C20.376 56.638 20.848 57.132 20.988 57.886C21.122 58.614 20.842 59.2 20.262 59.644C20.086 59.78 19.892 59.884 19.71 60C16.076 60 12.444 60 8.81 60C7.638 59.406 7.232 58.72 7.468 57.736C7.684 56.84 8.396 56.414 9.686 56.414C10.574 56.414 11.46 56.414 12.352 56.414C12.352 47.042 12.352 37.76 12.352 28.414C12.028 28.414 11.758 28.414 11.488 28.414C8.452 28.414 5.416 28.38 2.382 28.432C1.302 28.448 0.506 28.136 0 27.168C0 18.564 0 9.95803 0 1.35203ZM24.78 3.64603C17.676 3.64603 10.652 3.64603 3.626 3.64603C3.626 10.718 3.626 17.74 3.626 24.788C10.692 24.788 17.714 24.788 24.78 24.788C24.78 17.726 24.78 10.706 24.78 3.64603Z" fill="#D1001B"></path><path d="M36.346 42.8899C35.676 42.8899 35.002 42.9219 34.334 42.8819C33.306 42.8219 32.584 42.0639 32.586 41.1099C32.588 40.1859 33.28 39.3979 34.27 39.3579C35.684 39.3019 37.102 39.2999 38.516 39.3579C39.518 39.3999 40.176 40.1699 40.174 41.1199C40.172 42.0999 39.48 42.8239 38.434 42.8819C37.738 42.9219 37.042 42.8919 36.346 42.8899Z" fill="#2A2C43"></path><path d="M64.048 42.89C63.352 42.89 62.656 42.922 61.962 42.882C60.94 42.822 60.22 42.054 60.23 41.1C60.24 40.17 60.926 39.396 61.92 39.358C63.332 39.304 64.752 39.302 66.164 39.362C67.162 39.404 67.812 40.18 67.804 41.132C67.796 42.086 67.13 42.786 66.132 42.884C66.058 42.892 65.984 42.898 65.91 42.898C65.29 42.9 64.668 42.898 64.048 42.898C64.048 42.896 64.048 42.892 64.048 42.89Z" fill="#2A2C43"></path><path d="M12.494 16.578C12.494 17.912 12.506 19.172 12.49 20.432C12.478 21.438 12.032 22.12 11.27 22.37C10.08 22.758 8.95001 21.948 8.92201 20.632C8.87801 18.67 8.86801 16.706 8.86801 14.744C8.86801 12.556 8.89601 10.37 8.91201 8.18201C8.92401 6.59801 9.54401 5.98001 11.132 5.97801C13.246 5.97601 15.36 5.97201 17.474 5.98001C18.802 5.98401 19.514 6.66801 19.526 7.99201C19.544 10.18 19.544 12.368 19.526 14.556C19.516 15.884 18.81 16.57 17.488 16.576C15.852 16.584 14.218 16.578 12.494 16.578ZM15.89 12.962C15.89 11.796 15.89 10.698 15.89 9.62201C14.73 9.62201 13.63 9.62201 12.54 9.62201C12.54 10.766 12.54 11.846 12.54 12.962C13.668 12.962 14.75 12.962 15.89 12.962Z" fill="#D1001B"></path></svg> 