<?xml version="1.0" encoding="UTF-8"?> <svg xmlns="http://www.w3.org/2000/svg" width="18" height="18" viewBox="0 0 18 18" fill="none"><path d="M0 2.7158C0.0620907 2.48093 0.0926861 2.23167 0.192571 2.0139C0.584012 1.15633 1.26611 0.710896 2.20917 0.683C2.633 0.670402 3.05774 0.681201 3.49328 0.681201C3.51217 0.61641 3.52927 0.555219 3.54907 0.495828C3.65255 0.186275 3.94951 -0.0179945 4.26266 0.00450216C4.59741 0.0269988 4.88177 0.255564 4.91596 0.585815C4.95106 0.929563 4.93756 1.27781 4.94296 1.62336C4.94566 1.77364 4.94746 1.92301 4.94206 2.07239C4.92856 2.45034 4.6631 2.74999 4.31305 2.78688C3.93691 2.82648 3.62556 2.60691 3.52567 2.23077C3.51667 2.19747 3.51037 2.16238 3.50047 2.12188C3.03614 2.12188 2.57541 2.10209 2.11738 2.12818C1.73854 2.14978 1.46318 2.44494 1.45148 2.82828C1.43348 3.40059 1.44698 3.97471 1.44698 4.56322C6.41424 4.56322 11.3716 4.56322 16.3406 4.56322C16.3451 4.51732 16.3532 4.47053 16.3532 4.42464C16.3541 3.92881 16.3559 3.43209 16.3532 2.93626C16.3505 2.42874 16.041 2.11828 15.5371 2.11559C15.142 2.11289 14.7479 2.11559 14.3528 2.11738C14.3357 2.11738 14.3186 2.12458 14.3016 2.12818C14.1684 2.58441 13.9407 2.79138 13.5736 2.79138C13.2406 2.79138 12.968 2.58172 12.8834 2.24877C12.8618 2.16328 12.8429 2.11289 12.7376 2.11289C11.7153 2.11738 10.6931 2.11649 9.66995 2.11738C9.65825 2.11738 9.64655 2.12278 9.63575 2.12638C9.44498 2.62761 9.24521 2.80128 8.86997 2.79048C8.52352 2.78059 8.30845 2.57902 8.16447 2.11469C7.77303 2.11469 7.37439 2.11828 6.97575 2.11289C6.85157 2.11109 6.72199 2.10569 6.60501 2.06969C6.26756 1.96711 6.07409 1.67735 6.09568 1.3363C6.11548 1.03215 6.35934 0.756789 6.6887 0.706397C6.89926 0.674901 7.11703 0.6839 7.3321 0.680301C7.59486 0.676701 7.85852 0.678501 8.12128 0.677601C8.13298 0.677601 8.14468 0.673102 8.17077 0.666803C8.26076 0.263663 8.49202 -0.00629622 8.94106 0.00630189C9.2884 0.0162004 9.49627 0.229468 9.62765 0.670402C9.67445 0.673102 9.72664 0.678501 9.77883 0.678501C10.7471 0.679401 11.7162 0.678501 12.6845 0.678501C12.7727 0.678501 12.851 0.695598 12.8825 0.563318C12.9662 0.212371 13.2424 -0.000897028 13.5754 2.83642e-06C13.9065 0.000902701 14.1792 0.222269 14.271 0.566018C14.2791 0.594814 14.2827 0.624509 14.2926 0.678501C14.4122 0.678501 14.5364 0.675801 14.6597 0.679401C15.1078 0.691099 15.5632 0.655104 16.0014 0.727994C17.0308 0.899868 17.7615 1.77994 17.784 2.83368C17.8002 3.55627 17.7948 4.28066 17.7858 5.00325C17.7786 5.61246 17.3485 6.012 16.7186 6.012C11.7135 6.0129 6.70939 6.012 1.70434 6.012C1.62696 6.012 1.54957 6.012 1.44338 6.012C1.44338 6.08489 1.44338 6.14788 1.44338 6.21087C1.44338 9.3676 1.44338 12.5243 1.44338 15.6801C1.44338 16.2552 1.74034 16.5512 2.31805 16.553C2.61141 16.5539 2.90386 16.5521 3.19722 16.553C3.62915 16.5548 3.92161 16.796 3.9729 17.191C4.0197 17.5501 3.78393 17.8605 3.38259 17.9703C3.36639 17.9766 3.352 17.9892 3.3367 17.9982C2.90656 17.9982 2.47553 17.9982 2.04539 17.9982C2.0121 17.9883 1.9797 17.973 1.94551 17.9685C1.14103 17.856 0.555217 17.4358 0.215968 16.7006C0.107984 16.4675 0.0701895 16.203 0 15.9537C0 11.5408 0 7.12783 0 2.7158Z" fill="white"></path><path d="M8.75479 17.9982C8.34985 17.928 7.93681 17.8893 7.54267 17.7813C5.68175 17.272 4.26896 15.574 4.08449 13.6554C3.83523 11.0611 5.53957 8.79347 8.12308 8.36514C10.8776 7.90801 13.2577 9.81932 13.6671 12.3182C14.1054 14.9962 12.4001 17.4034 9.73384 17.9109C9.50617 17.9541 9.27311 17.9694 9.04274 17.9973C8.94646 17.9982 8.85107 17.9982 8.75479 17.9982ZM8.90056 16.6826C10.8587 16.6817 12.4505 15.0889 12.446 13.1353C12.4415 11.188 10.856 9.60335 8.90596 9.59975C6.94966 9.59615 5.3533 11.1853 5.3515 13.138C5.3497 15.0907 6.94426 16.6835 8.90056 16.6826Z" fill="white"></path><path d="M14.4608 17.9982C14.1576 17.9118 13.9182 17.757 13.8417 17.4241C13.7436 16.9958 14.0514 16.5755 14.4914 16.5584C14.8136 16.5458 15.1366 16.5548 15.4597 16.5539C16.0617 16.553 16.3541 16.2624 16.3541 15.6658C16.3541 13.12 16.3523 10.5743 16.3586 8.0286C16.3586 7.86123 16.3928 7.68036 16.4621 7.53008C16.5908 7.25382 16.8824 7.12424 17.1793 7.16833C17.4727 7.21153 17.7129 7.44279 17.7687 7.74245C17.7849 7.82973 17.7885 7.92062 17.7894 8.00971C17.7903 10.5671 17.7795 13.1254 17.7948 15.6829C17.8029 17.0327 16.8077 17.8965 15.8187 17.9739C15.7962 17.9757 15.7755 17.991 15.7539 18C15.3211 17.9982 14.891 17.9982 14.4608 17.9982Z" fill="white"></path><path d="M8.32915 13.1911C8.88437 12.6341 9.41619 12.1023 9.94531 11.5687C10.0893 11.4229 10.2549 11.3284 10.4627 11.3167C10.7804 11.2987 11.0521 11.4472 11.1853 11.7162C11.3221 11.9907 11.2843 12.3191 11.0746 12.5513C10.9226 12.7196 10.757 12.8762 10.5968 13.0363C10.0479 13.5853 9.49898 14.1351 8.94916 14.6831C8.55682 15.0745 8.13568 15.0745 7.74514 14.6849C7.42389 14.3645 7.10174 14.0442 6.78228 13.722C6.45833 13.3945 6.44393 12.9329 6.74539 12.635C7.04055 12.3434 7.51657 12.3614 7.83603 12.6791C7.998 12.8402 8.15188 13.0057 8.32915 13.1911Z" fill="white"></path></svg> 